<?xml version="1.0" encoding="UTF-8"?>
<svg id="Layer_2" data-name="Layer 2" xmlns="http://www.w3.org/2000/svg" viewBox="0 0 775.41 725.36">
  <defs>
    <style>
      .cls-1 {
        fill: #303337;
      }

      .cls-2 {
        fill: #23272a;
      }

      .cls-3 {
        fill: #3e4144;
      }

      .cls-4 {
        fill: #343638;
      }

      .cls-5 {
        fill: #414448;
      }

      .cls-6 {
        fill: #222629;
      }

      .cls-7 {
        fill: #2f3235;
      }

      .cls-8 {
        fill: #1f2122;
      }

      .cls-9 {
        fill: #393c3f;
      }

      .cls-10 {
        fill: #25282c;
      }

      .cls-11 {
        fill: #434547;
      }

      .cls-12 {
        fill: #2a2e31;
      }

      .cls-13 {
        fill: #e09f01;
      }

      .cls-14 {
        fill: #fcfcfb;
      }

      .cls-15 {
        fill: #fbbf01;
      }

      .cls-16 {
        fill: #070c0f;
      }

      .cls-17 {
        fill: #f7b901;
      }

      .cls-18 {
        fill: #1c2023;
      }

      .cls-19 {
        fill: #101518;
      }

      .cls-20 {
        fill: #fbfbfc;
      }

      .cls-21 {
        fill: #303437;
      }

      .cls-22 {
        fill: #32363a;
      }

      .cls-23 {
        fill: #0f1317;
      }

      .cls-24 {
        fill: #494b4f;
      }

      .cls-25 {
        fill: #17171e;
      }

      .cls-26 {
        fill: #2f3336;
      }

      .cls-27 {
        fill: #191d20;
      }

      .cls-28 {
        fill: #000507;
      }

      .cls-29 {
        fill: #22262a;
      }

      .cls-30 {
        fill: #12171a;
      }

      .cls-31 {
        fill: #181c1f;
      }

      .cls-32 {
        fill: #1a1e21;
      }

      .cls-33 {
        fill: #04090c;
      }

      .cls-34 {
        fill: #070714;
      }

      .cls-35 {
        fill: #0e1216;
      }

      .cls-36 {
        fill: #1a1c1e;
      }
    </style>
  </defs>
  <g id="Layer_1-2" data-name="Layer 1">
    <g>
      <path class="cls-32" d="M374,40.1c-1.79-3.57,9.4-8.62,12.75-9.65,4.97-1.52,13.25-2.09,16.57,1.96l.68-1.31c14.55,11.34,21.27,42.83,21,61-.23,11.17.64,22.18,2.6,33.03.56,12.53.69,25.19.41,37.97-1.93,23.33-1.11,46.68,2.46,70.03,1.6,18.03.73,37.18-2.47,53.97v2c.07,2.67-.95,5.79-3.06,9.35,42.63,1.77,87.67,4.68,126.73,25.04,72.22,37.64,104.67,120.48,101.2,198.66.05.37,2.99,6.58,3.12,4.95.86-1.53,1.8-.83,2-1,1.75,1.22,3.93.2,6.55-3.05,39.57-20.59,53.66-69.74,45.42-112.42l-8.03-44.56c-4.65-27.26-5.7-56.57,8.58-81.12,3.89-6.69,25.94-33.72,33.85-35.04,13.77-2.29,19.23,17.88,17.52,28.66l1.44,3.89c-3.59,35.13.7,72.01,5.82,107.53,8.9,59.66,1.87,120.3-39.16,167.1.71,1,.19,1.43-1,1l-11,12c-2.61,4.79-8.92,9.26-14,12-.41.3-.91,1.22-2,2-2.91,3.08-27.9,17.81-29.77,16.05-2.35-2.2,2.55-5.69,4.43-7.01,23.41-16.41,39.12-28.27,55.9-52.34,31.03-44.51,32.17-85.76,27.99-137.72-4.9-40.6-9.37-81.29-6.43-121.94-1.28-20.01-9.7-11.47-16.21.71-21.92,40.96-13.97,96.87-5.04,140.6,3.15,14.79,1.88,26.75-.16,40.75-2.29,15.69-3.32,22.67-14.71,35.11-15.62,17.06-37.34,33.91-61,36.59-.84,2.66-2.18,4.06-3.99,4.2-6.29,27.58-13.97,55.93-29,80l.59,2.79c-4.75,7.7-10.18,14.9-16.72,21.18l-2.88.03c-8.26,7.26-11.85,6.36-5.97-4.54,9.08-11.34,14.68-24.6,16.81-39.76l11.17-24.89c-.47-5.77,1.11-9.78,4.76-12.01l-.54-4.22c9.93-50.31-2.74-114.49-29.43-158.56-19.51-32.22-44.17-48.3-77.66-61.04-5.26,1.63-8.16.6-8.71-3.09l-3.41-.05c-22.19-10.18-44.78-14.13-69.02-17.38-13.07-5-24.19-7.5-30.81,7.33-10.32,11.94-12.02,3.9-9.33-7.61,10.37-27.78,9.47-56.56,8.31-85.61.19-19.59,2.33-39.05,6.43-58.37l1.17-16.86c-6.43,36-19.21,22.61-24.77-4.88-3.65-36.39-5.23-72.98-4.75-109.75-1.22-4.95-10.4-1.5-13.46-.29l-1.78-1.44Z"/>
      <path class="cls-35" d="M653,539.1c.27-1.54,1.85-3.59,1.01-5.99,8.39-.38,16.61-2.8,24.2-6.29,13.79-6.35,45.32-31.71,49.33-46.67,1.28-4.76,5.74-31.5,5.43-35.5-.53-6.9-1.14-14.62-2.09-21.92-.98-7.56-3.74-15.73-4.78-23.22-5.22-37.53-9.4-93.59,14.49-125.31,1.19-1.57,7.32-8.14,8.72-7.93,4.44.65,6.31,9.5,6.69,13.35,1.28,12.85-1.52,28.37-1.03,42.03,2.6,72.82,27.28,143.57-14.73,211.18-15.32,24.65-36.84,47.05-61.59,61.41-1.81,1.05-3.75,3.18-5.63,4.37.64,1.31,2.73.08,3.7-.3,6-2.38,19.99-10.4,25.3-14.2v1c.29.69.65,1.72.21,2.1-3.62,3.05-11.53,7.85-16.21,7.9-3.56,4.62-9.22,7.29-17,8-.21.86-.51,1.76-1.23,2.33-.64.5-13.71,3.32-15.71,3.64-1.02.17-2.03.27-3.05.02-3.44,4.31-15.37,7.25-20,4l-.15-2.48c11.35-22.67,19.4-46.51,24.15-71.52Z"/>
      <path class="cls-22" d="M141,5.1l9.48,7.05c-.98,2.12-3.45,2.41-7.39.87,10.66,23.06,21.23,46.5,26.07,71.99,10.99-.93,22.02-3.08,33.08-6.45l2.78,1.54c1.88-.22,3.09,1.41,3.63,4.88,28.34-5.01,58.77-3.2,87.22,3,1.85.4,9.45,2.3,9.76,3.02.36.84.54,1.66.31,2.57-18.42,18.27,8.16,3.83,11.5-4.54.53-4.35,1.04-5.81,5.74-6.4l11.53-12.02,2.3.48c1.91,1.34.91,3.34-3,6,1.82,2.03.56,3.83-2,3-2.99,3.06-5.66,6.39-8,10,1.2,2.19.31,3.12-2,2-5.27,9.15-23.24,31.04-29.96,12.92,4.6-8.96,1.07-11.31-10.59-7.04l-11.17.03c-8.39-2.64-11.26-1.58-18.57,2.67-8.13.64-16.12,1.94-23.97,3.89-1.35,3.63-3.48,4.08-6.91,2.79-2.86,5.12-5.53,6.62-11.21,7.89l-7.18,6.98c-6.31.03-10.64,2.65-12.98,7.87-4.97,2-9.44,4.76-13.42,8.29-.06,4.73-4.75,5.12-8.43,4.73-1.29,6.04-3.41,12.73-10.56,13.17-2.14,3.95-6.48,3.72-7.53-.79l-9.19,1.71c-2.68,2.48-4.92,3.12-6.73,1.94-.69,6.08-3.89,6.2-9.59.37l-3.43,1.52c-6.19-2.56-13.05-2.53-20.57.08.77,2.99-6.84,7.1-9,5-25.22,23.3-23.91,59.92-19.17,90.88,3.79,2.04,7.69,3.97,11.69,5.8,4.75,8.77-5.15,3.9-9.57.9l-3.95-.58c-.43.55-.81.96-1.04.89-4.06-1.25-8.15-2.98-11.96-4.89-1.63,1.33-3.4.7-5.29-1.9-4.03-.28-6.6-1.31-7.71-3.1.58-1.5,1.59-1.86,3-2,.73-.39,2.73.78,5-1-.61-1.42-.32-1.87,1-1,1.26-1.34,1.5-3.4.72-6.18,2.74-3.37,3.75-7.37,3.06-12.01,4.55-18.06,9.48-35.91,14.79-53.53l3.31-2.3c6.61-8.57,13.36-17.26,22.08-23.85,4.2-2.52,7.82-6.9,8.22-11.89,6.61-2.58,10.98-6.66,13.11-12.24,4.08.68,5.98-.4,8.33-4.05,2.12-3.98,5.25-7.14,9.4-9.48-.68-4.43.59-6.49,3.82-6.19-1.12-4.1-.73-7.2,1.17-9.29,3.8-5.59,12.53-8.49,19.09-9.71-6.63-24.13-14.25-45.26-26.8-66.85-10.43-17.94-20.17-6.2-19.51,9.54-6.21,29.14-12.36,59.89-9.26,89.45-2.34,2.51-4.18,5.03-5.52,7.56.93,3.28-2.58,7.55-6,7,.34-29.55,2.82-60.13,8.32-89.18C103.73,34.13,109.42,1.5,125.51.1c7.19-.63,9.84,1.87,15.49,5.01Z"/>
      <path class="cls-2" d="M97,297.1c2.02.38,2.91,2.87,2.67,7.47,4.97,6.06,7.81,12.5,8.51,19.32,6.11,10.53,14.79,19.45,26.02,26.76,4.19,3.58,14.54,13.38,6.79,16.45-1.67,2.44-2.32,1.48-3-1l-2.02,1.05c-2.62-2.65-1.77,4.98.84,6.45l2.38,6.82c2.92.05,3.73,2.02,2.43,5.91,3.11,2.54,3.97,5.2,2.59,7.97,2.4,2.13,2.44,5.42,2.37,8.39,2.57,1.08,2.89,3.28.95,6.6,1.06,4.95.23,8.37-2.49,10.27,4.49.54,3.39,4.72.65,7.17,2.89,2.06,2.78,4.99-.32,8.81.75,3.13.13,5.58-.96,8.49,4.24.43,4.29,4.08,3.03,7.59,3.33,2.03,2.9,5.3-1.3,9.8,4.37,3.37,4.12,6.63,1.94,11.29,3.94,2.46,3.49,5.85-1.34,10.18,6.3-2.38,3.78,4.55,1.34,7.91,1.14.98,1.97,2.14,2.5,3.49-2.73,8.62-.66,16.14,4.2,23.13-2.78,5.65-5.71,11.25-8.78,16.79,2.08,24.89,5.33,49.52,9.77,73.87-2.2,5.57-3.33,10.92-3.41,16.04,2.95,6.17,3.34,11.81,1.16,16.92-7.23,6.98-13.87,15.52-18.59,24.44s-2.02,12.79,3.61,20.22l-.54,1.42c-3.26-.07-6.93-1.07-11-3-.9,2.24-4.11-.15-4-2-.91-.63-2.35-1.47-3-2-17.9-14.7-15.98-45.4,4-57-2.07,3.5-5.73,7.71-9,11l1.09,2.04c-1.78,2.68-7.26,18.8-4.79,19.29.66-8.29,4.62-16,10.48-21.98,18.95-14.61,23.93-32.63,18.24-56.43,1.11-3.61.5-8.79-1.72-11.66.43-5.55-.25-11.35-2.36-16.46.8-5.38.31-11.02-1.45-16.93-7.06-24.27-10.72-48.62-10.97-73.04-2.59-1.63-2.81-4.71-.66-9.23-2.84-3.98-3.02-4.95-.73-9.47-2.26-3.08-1.73-7.06,1.61-11.96,0-2.21-1.22-4.09-3.62-5.65,2.2-3.47,3.61-7.31,4.22-11.52-4.13-2.18-3.59-5.6,1.63-10.25-.25-3.23-.6-6.4-1.06-9.52,2.39-6.66,2.53-13.65.42-20.97-.76-5.33.22-9.06,2.95-11.2l-3.15-2.9c-15.99-11.34-30.73-25.15-42.25-42.05-4.25-3.13-10.57-7.99-3.88-12.1,3.66-2.78,12.02-5.62,16.93-6.05.32-.03.69.44,1.07,1.05Z"/>
      <path class="cls-10" d="M735,553.1c-1.48,1.95-3.14,3.29-5,4,6.38-10.4,12.4-20.9,20.05-30.45,27.27-50.18,21.6-105.31,14.18-159.27-3.15-22.88-3.68-43.57-4.27-66.74-.12-4.55,2-16.94,1.86-17.84s-1.72-2-1.93-4.19c-.6-6.38,2.3-13.8-2.88-20.03-.58-.7-7.46-6.93-7.97-7.07-7.08-1.99-18.81,12.38-23.05,17.09-8.58,9.54-15,16.92-19.5,29.5-15.42,43.15,5.26,88.63,7.49,131.51,1.49,28.62-6.85,56.58-26.01,77.96-8.73,9.73-12.67,11.12-23.23,17.5-1.92,1.16-2.96,5.38-7.74,4.01l1-2.99c12.78-10.89,21.25-15.49,30.83-30.67,46.91-74.44-23.05-160.08,16.17-229.83,17.07-30.36,52.77-32.92,58.88,6.13,2.85,18.18-.86,39.82.13,58.87,1.5,28.71,9.36,57.39,10.98,86.02,2.9,51.28-9.14,95.87-39.99,136.49Z"/>
      <path class="cls-10" d="M656,527.1c-.19.34.16,1.4,0,2-4.03,1.11-.3-3.95-2.99-4.99l-2,4.99c-.5-10.33.67-21.22-.02-31.48-6.71-100.55-64.37-181.16-168.48-192.52-9.91-1.08-19.66-1.78-29.07-2.93s-20.83-2.56-30.43-1.07c-1.53-1.66,2.88-11.09,4.99-12,1.63-.7,12.86-1.89,15.46-2.04,122.34-7.18,210.28,94.08,212.58,211.5.19,9.68-2.34,19.3-.04,28.54Z"/>
      <path class="cls-30" d="M141,5.1c19.37,10.76,45.47,39.73,60.51,56.99,4.41,5.06,8.93,10.3,12.49,16.01-.21,2.96-7.79,4.9-9,2-10.27,1.64-22.1,6.09-31.63,6.89-1.77.15-4.66.77-5.9-.86-.98-1.3-2.68-11.64-3.54-14.46-3.2-10.55-6.6-22.09-10.77-32.24-1.76-4.28-14.5-26.74-12.16-29.32l8.99,2.5-4.26-2.53-4.74-4.98Z"/>
      <path class="cls-4" d="M79,302.1c-3.16,6.83,2.59,7.53,5.54,10.96,7.87,9.17,13.51,18.68,22.97,27.03,3.64,3.21,22.96,16.52,23.47,19.53.46,2.67-2.07.64-3.07,2.06-.51.72-.94,2.97-.95,3.95-.04,4.91,2.44,14.87,2.04,18.99-.28,2.8-2.56,5.56-2.04,7.86.17.75,2.12.51,2.09,1.13-.08,1.49-1.6,2.16-1.77,3.13-.23,1.3,1.03,2.85.59,4.63-.5,2.03-5.97,5.44-4.37,7.72l4.5-1.99c-2.15,3.24-2.25,9.1-3.51,11.98-.56,1.27-3.88,2.6-1.99,4.01l2.5-1.99c-.65,2.37.93,5.4.72,7.38s-3.43,6.36-3.64,9.19c-.03.48,1.95,0,2.05,1.9.18,3.22-2.1,4.43-2.17,6.01-.01.31,3.14.97,2.92,5.06-.12,2.21-2.36,3.99-1.86,6.46l2.98-2c-1.1,2.21-.14,4.51-.33,6.32-1.48,13.56,1.26,25.05,4.07,38.45,4.36,20.76,6.65,38.55,9.56,58.61,2.2,15.21,5.45,31.32,3.74,47.16-1.91,17.65-17.71,23.46-25.44,36.56-3.27,5.53-3.4,8.58-4.62,14.21-.12.55-3,1.31-1.98,3.71-2.83-1.19-2.52-9.86-1.97-12.33.16-.7,1.62-.74,1.65-.89,1.29-6.54.36-6.45,4.33-12.78,4.09-4.57,8.09-8.9,12-13,2.38-1.08,4.38-2.42,6-4,1.72-2.54,2.75-4.12,4-7,.62-3.14,1.29-6.14,2-9,.82-6.94,1.08-14.1,0-21-1-.08-1.19-1.92-1-3,1.37-3.24.73-7.86,0-11-.42,1.62-.7,2.49-2,1-.06-.66.06-1.34,0-2,.3-4.86.25-9.73-.16-14.59l-.84.59c-.47.05-.82-.02-.99-.52-.16-.79.15-1.78,0-2.48l.88-2.03c-1.75-11.29-4.38-22.28-7.88-32.97-.92.6-1.17.08-1-1-15.17-42.78-12.95-88.84-6.86-134.73,3.01-6.19,3.62-10.61,1.86-13.27.66-2.12,1.07-3.89,2-6-1.35-2.14-3.35-3.81-6-5-3.16-2.24-4.91-3.11-8-6-1.96-1.96-3.96-3.3-6-4-11.35-9.45-23.72-22.67-32-35-1.72-4.17,4.89-6.18,8-6Z"/>
      <path class="cls-24" d="M141,99.1l.86,9.31c-.75,3.35-3.73,1.48-3.85,1.69-.44.79.39,3.83.02,5.31-.23.9-4.55,1.94-3.03,5.7l-2.97-2c-2.49,4.23-7.97,14.68-13.01,10,.44,6.74-4.22,6.91-8.4,10.14-2.14,1.66-.79,4.13-4.6,1.86,2.4,4.75-2.46,5.24-3.33,9.67-10.59,6.39-18.27,16.23-26.12,26.41-.86,1.12-2.98,1.59-3.32,2.15-.64,1.08-.22,3.8-.91,5.59-6.04,15.73-9.4,31.07-13.59,47.39-.6,2.33.33,5.54-.09,7.11-.54,2.02-3.08,3.96-3.35,6.3s3.05,7.3-2.29,4.37c-1.19-2.02-1.86-4.69-2-8-.35-42.52,14.78-74.78,42-106,1.98-2.27,3.92-4.84,6-7,8.15-14.22,23.8-23,38.34-30.46l3.66.46Z"/>
      <path class="cls-10" d="M426,96.1c.14,8.72.65,17.76,1.63,26.44,0,.07-.17-1.12.37-1.44,1.5.69.97,2.68,1,4-.57,3.47-.81,7.57-.41,11.05,0,.06-.14-.7.41-1.05,1.6.84.97,3.4,1,5v43c.6,23.57,7.67,43.25,6.04,69.54-.21,3.46-5.03,34.68-8.04,34.46-.1,0-.63-1.06-.84-.88-.34.29-1.03,3.79-2.17,2.38,4.25-14.89,4.53-29.61,4.06-45.04-.72-23.51-5.99-45.18-3.94-68.76,1.71-19.74,2.19-32.98.88-53.17-.74-11.42-1.16-17.86-.98-29.52,1.57.71.87,2.71,1,4Z"/>
      <path class="cls-3" d="M384,26.1l10.77.88c1.59.74.86,1.88-.76,2.67-9.4-.31-17.93,5.62-24.34,12.09l-4.25,1.74c-9.05,8.89-17.86,18.06-26.45,27.49l-1.97.13c-1.82,1.9-12.22,13.02-13.04,13.49-1.24.72-3.44.24-3.85.62-.29.27-.19,3.22-.86,4.63-2.12,4.41-12.83,14.12-17.77,14.33-7.77.34-3.41-5.28-.49-8.61,1.33-1.51,4.93-1.37,2.07-4.79-1.71-2.05-11.49-1.35-14.47-1.77-21-2.96-38.43-6.52-60.05-4.94-3.84.28-20.2,4.85-22.09,2.09-.89-1.3-.17-4.47-1.45-6.05,2.05-.33,7.77-2.07,9-2s3.17,2.36,5.39,2.06c.33-.05.1-1.82,5.61-2.06,8.28.52,16.88.93,25,0,2.78.14,10.27.52,12.33,1.01.77.18.64,1.97,1.29,2.05,1.84.21,3.85-.46,7.38-.05,3.2,1.01,6.65,1.76,10,1,1.71.33,7.9,2.29,11,3,4.36,1.51,8.7,2.84,13,4,1.96-.39,2.13-.05,4.04-1.43,12.17-8.81,26.24-27.78,38.48-38.54,7.46-6.55,27.17-21.46,36.47-23.03Z"/>
      <path class="cls-9" d="M126,512.1c-.08-1.74-.42-2.07-1-1-18.93-53.89-21.23-91.93-4-147,1.79-2.5,3.62,1.96,3.63,2.51.01.78-3.28,8.64-3.56,11.04-2.99,25.47-5.11,49.77-4.31,75.93.56,18.35,2.93,30.42,8.14,48.12.63,2.14,2.24,8.31,1.11,10.39Z"/>
      <path class="cls-7" d="M39,250.1c2.77,1.05,4.43,2.38,5,4,6.13,2.12,7.93.81,13,5,2.97,1.15,5.3,2.49,7,4,3.06,3.49,10.23,13.65,3,15-2.44,2.32-7.53,2.28-10,0l-5.22-19.78-47.77-10.23c-.24-1.74,2.27-.94,3.48-.99,11-.41,20.78,1.12,31.51,3Z"/>
      <path class="cls-4" d="M64,284.1c4.06,1.09,7.15,7.87,8.84,11.91,1.03.8,5.71-1.53,6.92-2.19l2.23,1.28c4.26-2.32,8.22-4.04,13.21-3.9,2.25.06,8.55,1.36,5.53,3.56-10.9,1.93-20.88,5.56-29.95,10.88l-1.79-.55c-7.29,3.44-14.39,7.35-21.67,10.83l-21.33,13.16c5.89-6.5,14.05-12.34,21.48-17.01,3.22-2.02,18.72-9.28,19.36-10.17.42-.58.26-2.01.16-2.81-2.59-4.3-4.74-8.82-6.46-13.57-3.29-2.28,2.26-4.72,3.46-1.43Z"/>
      <path class="cls-12" d="M384,26.1c2.17-.37,10.23-.37,12.32.03.72.14.77,1.54.92,1.59,3.06.99,3.82,1.1,6.75,3.39,2.91,4.38-4.37.21-5.56.07-6.98-.81-20.41,2.72-24.44,8.93l-.99,2.77c-10.86,7.81-20.62,16.92-29.28,27.33l-1.73-.1c-1.63,2.79-3.55,5.21-5.63,7.69-.5.59-1.64.04-2.37-.69,1.24-2.02,3.48-3.25,3-6,7.73-8.07,13.3-14.94,21.88-22.67,1.86-1.68,4-5.2,5.59-6.39,1.43-1.06,3.71-.27,4.82-.87s.6-2.47,1.73-3.51c.67-.62,14.81-9.09,15.69-9.34,2.53-.73,5.65.04,8.28-.22l-10.99-1.99Z"/>
      <path class="cls-11" d="M57,278.1c3.3-.14,6.69,0,10,0,3.38-3.17,12.95-2.42,16,1,1.66-1.36,4.44-1.23,6,0,4.38-1.48,6.25,5.7,1.97,3.5l-5.97-.5c-1.37.83-2.88,1.58-4.51,1.48-13.16-.75-26.08-1.48-39.31-.48-9.18,1.16-18.24,1.82-27.17,2,13.06-4.65,29.06-6.42,43-7Z"/>
      <path class="cls-18" d="M85,282.1l7.88.74c2.37,5.56-5.14,7.25-9.27,6.43-5.41-2.12-12.09-3.72-18.03-3.5l-1.58-1.67c-1.4.37-3.38-1.07-2.87,1.35.96,4.52,5.38,9.44,5.87,13.65-4.13-2.12-5.2-11.7-7.47-14.03-1.57-1.61-14.74-1.14-18.02-.96-9.97.55-23.63,2.27-33.51,3.99-2.08.4-3.08.06-3-1,2.51-.74,6.45-1.62,9-2,21.95-3.26,48.64-5.19,71-3Z"/>
      <path class="cls-18" d="M82,295.1c-2.13-3.54,6.66-6.87,9.87-7.32,4.84-.68,16.16,2.05,11.98,8.39-.96,1.45-6.06,3.63-6.85.92-7.11,1.77-10.66,1.92-18,5-4.32,1.81-6.99.62-8,6-.62-.92-.76-2.34-2-3,9.98-4.71,19.76-9.63,31-11.01-.51-2.04-1.47-1.61-2.98-1.57-3.92.1-11.03,1.59-15.02,2.58Z"/>
      <path class="cls-9" d="M127,513.1c3.84,7.75,7.58,21.17,8.72,29.78.22,1.64,1.66,5.96-1.72,5.22-1.36-5.98-2.65-12.02-4-18,.27-3.32-.4-6.66-2-10-.03-.09-.74-.31-1-1-.24-2.29-.24-4.29,0-6Z"/>
      <path class="cls-32" d="M430,183.1v-43c.29,14.38-.36,28.69,0,43Z"/>
      <path class="cls-2" d="M138,577.1c.16,1.22.94,2.44,1,3,1.05,6.95.84,14.05,0,21-.04,1.09.62,2.37.48,3.46-.18,1.44-1.83,4.03-2.48,5.54-1.05-2.97,1-7.62,1-9.5v-18c0-3.92-1.61-11.1-2-15.5.67-.3,1.24-1.07,2-1,1.07,3.75,1.07,7.42,0,11Z"/>
      <path class="cls-35" d="M704,582.1c4.36-3.23,9.83-8.28,14-12l11-12c.36-.3.64-.7,1-1,1.61-1.37,3.29-2.76,5-4-7.69,10.12-15.64,19.63-26.43,27.08-1.49,1.03-2.33,2.36-4.57,1.92Z"/>
      <path class="cls-32" d="M428,121.1c-.06,1.11.69,3.26-.99,2.99,1.21-9.2-3.92-19.12-1.01-27.99.81,8.17,2.43,16.82,2,25Z"/>
      <path class="cls-22" d="M250,78.1c-1.04,1.66-3.8,1-5.49,1.02-6.2.07-13.69.76-19.51-1.02,7.82-.34,17.2-.4,25,0Z"/>
      <path class="cls-24" d="M47,252.1c-.2.11.5,3.08-3,2-2-.69-3.8-1.97-6.01-2.01l1.01-1.99c2.59.45,5.81,0,8,2Z"/>
      <path class="cls-2" d="M136,565.1c-.4-4.64-.85-9.34-1-14,.15-.02.5-.91.98-1.01-.66,5.28,3.49,9.92.02,15.01Z"/>
      <path class="cls-12" d="M305,89.1c-.24.05-.92,1.3-1.93.59l-11.07-4.59c4.47,1.02,9.01,1.46,13,4Z"/>
      <path class="cls-7" d="M53,250.1c-.03.26-.69.76-1,1-1.81-1.98-.98-6.18-1-9,1.09,1.55,2.21,6.37,2,8Z"/>
      <path class="cls-9" d="M127,621.1c-.08.09,1.17,1.23.04,2.44-1.27,1.35-4.34,2.48-5.73,3.86-1.62,1.61-2.32,5.77-6.31,6.7,2.32-3.71,5.64-7.94,9-11,.82-.75,2.1-1.27,3-2Z"/>
      <path class="cls-32" d="M429,135.1c-.05,1.11.69,3.26-.99,2.99.52-4.04-1.25-9.39.99-12.99.08,3.29.16,6.72,0,10Z"/>
      <path class="cls-2" d="M130,530.1c-.74-3.29-1.43-6.67-2-10,.96,2.48,4.79,7.04,2,10Z"/>
      <path class="cls-2" d="M126,512.1c.28.42.88.75,1,1,.03,2.12,1.72,4.35,0,6-.94-2.47-1.22-5.79-2-8l.99-1c.14.6-.19,1.71.01,2Z"/>
      <path class="cls-2" d="M117,353.1l6.99,3.02c.48,1.52-.89,1.74-.99,1.98-2.02-1.3-4.24-3.75-6-5Z"/>
      <path class="cls-11" d="M8,288.1c-2.17.38-5.32,2.41-8,1.99.56-1.78,3.39-2.52,5-2.99l3,1Z"/>
      <path class="cls-22" d="M281,82.1c-2.34,2.21-7.56.6-10-1,3.09.36,7.03.43,10,1Z"/>
      <path class="cls-2" d="M127,621.1c1.92-1.56,3.24-3.28,6-4-.04.06,1.13.51.09,1.43-1.5,1.33-5.87,2.33-6.09,2.57Z"/>
      <path class="cls-18" d="M109,347.1c-2.37-.35-4.19-2.49-6-4l.52-1.01c2.67.3,3.86,3.49,5.48,5.01Z"/>
      <path class="cls-23" d="M374,40.1c1.46-.7,8.87-3.06,10.37-2.97,9.4.6,6.65,6.96,6.58,12.43-.27,20.27,1.64,40.42,2.05,60.05s.25,44.19,9.61,61.38c1.43,2.63,4.59,8.15,7.44,4.4,5.71-7.53,6.68-18.63,7.86-27.95.5-3.98-1.75-11.13,3.07-14.33.15,12.19.06,24.35-1,36.49-1.09,12.55-4.48,25.08-5.72,37.28-4.19,41.19,5.95,65.18-8.81,108.19-1.37,3.99-.96,9.81-2.46,14.03,7.57-.65,11.4-14.15,16.25-16.24,2.66-1.15,11.21-1.17,14.19-.69,2.44.39,4.08,2.14,6.33,2.67,15.61,3.64,32.87,4.47,47.43,8.57,8.2,2.3,16.25,7.13,24.54,9.48,1.61.45,4.24-.16,5.11.37.69.42.91,3.68,1.16,3.87s4.28-1.31,6.39-.99c5.85.87,35.75,16.93,42.09,20.99,32.28,20.67,56.49,71.84,63.27,108.73,5.07,27.61,10,51.4,6.11,79.65-.57,4.16-2.01,8.28-2.67,12.43-.29,1.84.77,3.55.58,4.59-.34,1.86-3.43,2.06-4.15,3.87-.87,2.17.24,4.13-.27,6.5-1.41,6.47-9.27,19.49-11.86,27.23s-3.92,19.38-7.3,25.7c-2.83,5.28-10.41,13.48-12.02,18.98-1.76,6,5.02-2.03,6.82-1.68l-1.25,3.95c-17.35,16.67-39.18,25.82-61.67,33.45-39.53,13.4-92.54,28.38-133.25,18.03-.68-.17-.82-1.5-.83-2.43-1.68,1.38-3.1-.07-2-2-8.39-3.65-7.96-15.06-6.64-23.54,1.54-9.86,9.71-30.75,19.64-34.13,8.3-2.82,23.99-.3,32.63,1.39,19.02,5.68,38.18,9.03,57.51,10.05,8.55-1.3,7.6-2.83-2.85-4.58-35.37-4.88-91.34-19.24-93.37-63.18-1.81-39.18,19.99-82.28,44.16-111.56,3.24-3.93-.05-2.59-1.95,1.36-5.36-.58-7.95-.51-12.93,2.1,3.5,3.82.68,9.62-4.55,7.73-22.51,36.12-43.14,73.59-57.38,114.75-8.31,24.17-17.73,47.37-28.27,69.61-2.77,11.2-8.57,21.56-15.47,30.79l-3.53,1.21c.05.72.06,1.44-.06,2.13-1.6,9.17-29.46,21.66-38.6,23.95-13.51,3.38-48.37,5.52-60.24-1.31-.53-.3-.84-.98-1.1-1.77.28-2.23,1.5-2.15,3.34-2-7.87-8.08-6.55-12.35-1.44-21.11l11.37-16.39c7.3-7.33,15.16-20.05,2.33-25.74l-.57-2.3c2.26-7.57,5.67-14.82,9.33-21.76-2.12-2.43-1.97-5.26.45-8.49-2.54-2.26-1.67-5.73,2.6-10.41,2.64-3.9,2.03-7.19-1.85-9.88l-4.06-16.08-2.52-1.78c.13-5.46-15.76-25.17-16.29-14.1.25,4.2-.65,6.88-2.69,8.03-3.62,12.77-14.93,10.15-24.66,5.75-7.78-4.87-15.77-9.29-23.96-13.24,4.99,17.13,5.14,32.47,3.03,50.4,3.26,8.85,4.2,17.36,2.81,25.53-6.48,11.24-15.45,29.45-3.67,40.1.52,1.56-.33,3.04-2.55,4.45-1.61,3.68-13.66,5.49-16,2-9.01-8.09-6.61-16.53-2.32-26.64l9.78-18.78c1.18-2.8,2.77-6.61.55-9.2-7.26-5.57-11.9-11.84-9.01-21.27-.12-21.6-2.99-43.12-8.34-63.88-2.54-11.83,5.12-9.27,11.74-4.53,7.13,6.49,15,10.56,23.61,12.21,1.94-4.65,5.76-8,11.44-10.04l.47-11.17c-3.66-4.2-2.62-8.42,3.12-12.67l-.48-2.97c-4.74-2.86-1.94-13.46,4.16-13.37-3.38-5.57-4.56-9.93-1.31-15.77-3.62-.07-4.72-3.56-3.66-6.63-1.52-2.83-1.57-6.44-.13-10.82-2.1-.21-3.48-.86-3.73-3l.44-15.67c-1.91-3.64-2.45-7.75-1.62-12.33l-.48-.91c-5.94,2.66-7.5-1.44-4.67-12.27-5.1,1.89-5.08-3.17-3.46-6.63-3.17-3.1-5.38-7.33-6.62-12.7-4.07-.59-6.76-4.02-8.06-10.28l-16.07-14.94c-7.68-13.31.61-14.17,12.39-12.71,5.38-.32,25.09-1.93,28.04-5.47.35-.42,5.02-8.78,5.32-9.55,4.71-12.1-14.33-22.36-23.07-26.9l-16.59-11.42c-5.83-3.38-12.36-3.39-19.59-.02-3.55.45-13.57.15-10.85-4.63l1.83-1.82c16.01,1.15,20.75-18.32,11.61-29.14-6.79-6.26-10.27-13.27-10.43-21.03-3.56-1.37-1.97-8.61,2-9h1l1.1,1.89c-.92,3.89-1.29,7.93-1.1,12.11,2.59-.26,7.03,5.49,8.81,7.96.96,1.34,2.28,3.43,2.19,5.04,1.72-.44,3.6.49,5.64,2.79.81-11.48,5.96-17.71,15.44-18.69,4.12-1.55,7.85-3.53,5.92-8.1-2.03,1.84-5.57-.39-5-3-1.12-5.01,7.08-1.17,9.46,1.05,18.57,17.36-7.75,28.3-21.14,33.73-5.15,18.93,11.48,29.63,28.15,31.73-2.22-2.16-3.69-6.37-4.2-9.45-.31-1.9,2.46-17.96,3.44-19.51,1.98-3.13,10.24-6.93,13.65-5.25,3.26-8.32,5.98-7.76,14.14-5.99,4.53,4.35,8.82,5.28,12.87,2.79,12.82,3.7,27.55,2.8,40.93,1.8,19.77-1.48,29.01-4.13,39.73-21.8,13.93-22.98,15.92-42.65-.13-65.03,15.77,34.72-5.26,78.24-45.44,78.75-33.22.43-65.79-34.53-52.7-68.08,14.13-36.21,51.76-42.39,85.51-32.12,12.8,6.59,16.84,2.17,19.37-10.64,4.35-3.98,5.97-8.2,4.85-12.68,6.65-18.2-.15-27.61-16.93-35.38-3.8-4.75-1.84-10.02,5.87-15.82l2.57-4.12c-1.33-1.39-.7-1.99,1-1,1.73-2.51,3.07-3.17,4-2,1.6.7,2,1.51,1.11,2.93-9.86,8.91-11.14,14.16-3.85,15.74,19.02,5.19,38.79,17.9,50.39,33.84,3.88.39,7.01,2.6,9.38,6.65-1.87-8.52-5.51-16.7-10.9-24.52-3.1-5.33-2.27-10.31-1.16-16.03-4.07-18.14-2.27-35.15,1.04-53.3.27-2.4.37-5.15-.6-7.39-2.15-4.94-25.16,20.57-27.17,22.89l-3.25.17-.95-.97,4.95-7.03c9.12-9.75,19.8-24.15,32-30Z"/>
      <path class="cls-10" d="M629,613.1c-1.49,2.64-4.07,4.54-5,6-.93-7.09,4.46-10.26,7.19-15.31,8.45-15.6,16.21-42.6,19.72-60.28.34-1.7-.29-3.74,2.08-4.42-4.36,24.53-11.94,52.58-24,74Z"/>
      <path class="cls-10" d="M718,570.1c1.85-5.24,6.94-8.58,11-12-1.89,4.79-7.21,8.62-11,12Z"/>
      <path class="cls-29" d="M233,577.1c.15-3.25.29-17.88,6.42-12.92,1.93,1.56,8.64,6.45,9.54,7.47,1.92,2.17,3.32,7.66,4.64,10.4.36.75,1.97.96,2.5,1.77.83,1.28,2.91,13.42,4.57,17.04.68,1.49,2.35,1.47,2.81,2.22,2.42,3.96-3.06,12.91-6.46,15.52,1.83,1.98,5.28-4.33,5.99-3.5l-5.98,12.51,3.98-1.51c.89,1.22-3.06,6.06-3.74,7.77-1.64,4.13-1.31,3.76-3.68,8.3-.38.72-3.59,8.96-3.6,9.47-.03,2.84,3.64,2.48,4.75,3.75.2.23,2.99,5.04,3.05,5.34.1.48-1.7,8.61-2.07,9.58-1.53,4.01-6.18,7.9-8.53,11.47-3.94,5.99-6.33,9.8-10.64,15.36-.93,1.2-3.8,7.55-4,8.88-.79,5.17,8.89,11.86,7.47,13.08h-7c-.68-.23-1.32-.74-2-.99-3.17-1.2-7.01-2.4-10-4-9.42-5.03-15.63-10.34-18-21l-1.38-.14c-.6-2.59-1.8-4.54-3.62-5.86-.16-1.9.77-2.65,1.99-3.64-.68-18.42,9.48-31.93,25.55-39.58,4.82-14.18,6.62-29.34,5.42-45.48l2.03-1.31c.93-6.29.74-12.71,0-19-.89-.19-.85-.52,0-1Z"/>
      <path class="cls-12" d="M322,92.1c1.81,2,.81,4.33-3,7-.24.33-.72.61-1,1-2.14,3.77-6.41,9.03-9.74,11.76-.13.1-.64-.26-1.26-.76-1.44,4.39-6.06,5.44-10.29,4.43-9.04-3.72-16.34-3.71-23.97,2.8-7.57,1.28-11.18,4.53-15.35,10.9-3.09.75-4.88,2.07-5.4,3.96-4.43,2.48-7.7,5.84-11.4,9.77-3.3,0-5.12,1.06-5.44,3.2-4.83,1.49-8.78,4.38-11.84,8.69-2.5-1.1-4.23-.3-5.2,2.39-2.66-.14-4.63.68-5.92,2.46-6.21,1.7-10.34,8.12-13.05,13.87l-11.11,8.68c.39,5.09-2.94,10.01-7.88,6.06-2.61,4.57-5.94,7.97-10.01,10.21-.38,4.3-2.28,8.77-5.69,13.42,1.09,9.39-1.75,20.06-5.67,28.55-3.9,3.53-6.32,6.79-7.77,11.6-2.26,1.12-4.59,2.45-7,4-3.32,3.25-6.44,7.46-9.36,12.63l-8.13,5.3c-4.1,4.57-9.17,8.74-15.39,5.55-5.86,5.76-16.78,4.64-20.77-2.01-3.04-.62-4.49-1.77-4.36-3.47-1.91-1.47-2.24-2.47-1-3l1.75-1.6c16.8,2.52,30.97-4.38,43.66-14.86,7.06-5.83,12.11-18.81,14.44-27.79,1.36-5.21,2.47-11.49,1.15-16.75-.38-10.1-.99-20.76-4.08-30.72-2.81-2.7-4.77-5.12-3.12-9.12-2.75.25-5.02-.14-6.8-1.16.23,2.01-.95,1.43-2,0-8.13-6.82-18.11-6.59-28.15-5.88l-1.85-2.12c5-2.74,10.17-4.94,16.45-3.96,1.67.26,2.76,1.96,4.06,1.96s2.07-1.7,3.55-1.54c2.84.29,5.65,5.5,6.94,4.54.91-3.1.12-5.81,3.51-6.99,1.61,6.95,2.02,1.41,3.7.68,3.71-1.62,9.39-.38,12.3-3.67,1.38,1.05.21,5.47,2.98,4.99,3-1.23,1.62-4.25,2.08-5.02.7-1.16,4.05-2.23,4.94-3.97,3.13,2.3-4.31,4.39-2.5,5.99,1.02.91,4.45-2.64,5.01-3.48,1.63-2.46,2.65-9.17,3.01-9.51.26-.25,5.42.58,6.95-.48,3.64-2.53-2.04-1.92-.97-4.51,6.57,1.65,6.01-2.32,9-4.5,2.04-1.48,4.7-1.12,6.55-2.45,1.45-1.05,3.96-6.45,4.68-6.84,1.11-.61,3.12.17,3.69-.33.49-.43-.17-2.59.08-2.89,1.62-1.99,2.12,2.01,2.59,2.08,4.21.57,6.95-5.94,10.21-7.76,2.43-1.36,5.08-1.04,6.77-2.24,1.4-.99,2.45-4.72,4.44-5.61,1.62-.73,3.15.76,4.34.62.97-.12,1.01-2.69,2.65-3.57,2.58-1.39,7.61-.8,10.26-1.75,8.35-2.99,5.06-1.09,12.14-1.77,4.34-.41,9.27-4.59,10.21-4.77,2.24-.43,9.03,1.85,11.81,1.71,5.18-.26,4.9-.3,10.02-.07,3.71.17,10.61-4.21,13.65-.47,2.73,3.36-1.91,7.25-.95,10.86,1.39,5.23,8.66,3.57,12.38,1.76,2.92-2.97,7.42-6.96,9.91-10.09,3.61-4.53,1.08-2.9,5.56-5.95Z"/>
      <path class="cls-19" d="M99,129.1c-2.69-2.27,3.5-4.68,3.66-6.48.09-.96-1.13-2.6-1.15-4.04-.29-31.61,3.31-55.83,10.18-86.28.82-3.64-.09-7.93,1.56-12.43,1.28-3.5,6.27-8.98,10.3-8.71,4.64.31,11.52,10.14,13.86,14.03,11.61,19.26,18.9,43.26,24.15,64.96-7.16,2.5-13.85,5.78-20.57,8.96-17.51,8.27-28.58,16.06-42,30Z"/>
      <path class="cls-7" d="M91,166.1l.34,2.71c-11.96,15.5-18.87,27.51-17.97,47.4s5.33,26.47,20.64,36.88c-.37,2.41-1.81,4.94-4.31,7.61,6.4,3.65,12,3.6,16.79-.17,7.25,2.08,18.96-7.06,23.8-12.18,8.81-9.33,12.92-26.24,15.72-38.27,3.47,2.28,1.65,13.75.78,17.28-.74,3.01-8.75,22.7-10.32,24.68-2.02,2.56-8.45,6.68-11.4,8.65-3.5,2.33-4.64,3-7.99,5.95-2.35,2.08-19.37,5.51-23.54,5.5-3.2,0-5.45-.13-8.53-1.05-.37.46-.72.81-.99.75-1.88-.39-11.82-5.95-13.96-7.38-.22-.15-.18-.7-.05-1.38,5.34-3.41,8.78,3.8,14,2.99-2.57-4.29-13.39-4.67-14.8-9.69-.52-1.87.07-3.92-.26-5.75-4.45-24.8-1.12-69.38,22.06-84.55Z"/>
      <path class="cls-25" d="M100,161.1c10.3.72,18.08.13,27.35,5.17,1.49.81,2.48,2.75,2.65,2.83.87.28.86.62,0,1-2.95-.05-6.1-1.1-9.45-3.15-44.64-12.79-61.28,80.93-15.34,84.62,4.07-1.15,7.66-1.31,10.78-.47,1.41-.39,1.69-.38,1,1-1.18,5.53-18.2,5.81-21.93,3.53l-1.07-2.53c-2.76-1.16-6.37-4.75-8.99-6.36-.69-.42-2.19.49-3.53-.53-11.53-8.82-12.24-40.94-7.21-53.34,2.38-5.88,6.57-11.6,9.75-16.52,2.25-3.49,4.18-7.13,6.98-10.25,2.44-1.6,6.31-3.53,9-5Z"/>
      <path class="cls-27" d="M338,78.1c-.93,6.89-8.8,15.76-15,19l-4,2c.99-1.4,2.45-5.17,3-7,.32-.22,1.1-1.32,2-2,2.38-3.51,4.9-7.09,8-10,.64-.97,1.41-2.04,2-3,2.76-.81,5.73-4.57,8-7-1.01,2.12-2.78,6.28-4,8Z"/>
      <path class="cls-18" d="M70,263.1c4.48,1.93,10.18,6.57,15,8l1,3-3.45.39c-5.82-2.34-14.79-6.89-18.55-11.39-3.86-1.68-4.68-2.08-7-4,3.83,1.48,9.42,2.46,13,4Z"/>
      <path class="cls-12" d="M324,90.1c.51-3.63,4.86-8.68,8-10-2.9,4.38-3.38,6.5-8,10Z"/>
      <path class="cls-31" d="M139,317.1c.12.03.57,1.38,1.73,1.74,10.23,3.15,12.96-1.5,20.8-1.79,7.25-.26,19.26,10.38,25.58,14.44,8.46,5.45,17.57,8.02,22.74,18.25,4.03,7.96,1.82,10.29-2.25,16.45-2.3,3.49-.87,5.52-6.68,7.32-5.04,1.57-18.64,3.06-24.44,3.56-2.92.25-13.65-1.84-14.4,1.6-.17.77,2.14,7,2.88,7.95,3.08,3.96,12.86,10.94,16.06,14.94,1.6,2,2.63,8.22,3.96,9.07,1.15.74,3.45.14,3.9.57.47.46,3.96,10.78,4.65,11.89.47.76,2.33.73,2.54,1.67.4,1.81-1.42,4.3-1.07,6.32.76.81,5.3-4.08,6-.47.18.95-1.65,2.44-1.94,4.04-.53,2.87-.55,6.45-1.06,9.43,1.13,1.22,5.51-5.11,6.82,1.76.58,3.02-1.26,5.49-.86,7.58.13.69,1.75.52,1.99,1.37,1.18,4.16-.55,18.52.05,19.28,1.79,2.3,1.75-2.6,2.98-1.99,1.65,5.19-.32,8.49-1.01,13.49l3.02.51c-1.97,2.37-2.06,3.08-1,6l3.99-1c.87.79-2.7,8-2.74,9.3-.1,3.49,3.36,7.31,3.76,10.2.43,3.12-3.95.19-5.56,2.46-.24.33-1.56,6.79-1.5,7.4.07.73,1.85.63,2.36,1.84,3.31,7.74-5.05,7.39-4.99,11.31.02,1.44,2.06,2.73,2.44,4.24.81,3.2-1.35,10.24.14,14.16-2.5.77-6.93,2.11-8.9,3.6-2.23,1.69-2.76,5.25-4.01,6.05-1.48.94-9.06-1.25-11-2.07-4.16-1.74-20.89-16.57-24-13.5.28,8.33,3.41,16.43,4.87,24.63,2.64,14.83,3.81,30.13,4.13,44.87.05,2.48-1.18,4.23-.77,7.72,1.1,9.48,10.36,10.59,10.86,16.27.93,10.58-18.25,29.22-14.88,43.81.74,3.19,4.85,4.68,3.79,8.71-8.02.02-16.21-.7-24-2-18.23-9.01-7.03-34.18,4.53-43.97,7.81-6.61,12.32-2.81,6.47,4.97,1.17,1.68.21,4.7-2,5-1.55,3.25-1.66,5.84-.31,7.76-1.05,6.74-.54,13.18,1.53,19.35-.24-10.21,3.75-19.77,11.98-28.69,4.88-9.24,2.05-13.54-6.41-19.12-2.22-7.31-3.12-15-2.72-23.05-1.89-2.98-1.26-6.94,1.89-11.87-4-15.88-7.04-32.13-9.11-48.75-4.58-9.98-4.24-20.65,9.71-15.12,4.24,2.65,8.53,4.78,12.87,6.39-3.53-5.83-4.15-9.83-1.88-16.57-2.43-2.55-2.61-6.08-.52-10.59-4.85-4.61-5.6-8.97-2.24-13.07-4.17-7.25-3.62-10.82,1.26-16.99l-1.45-3.27c-5.18-.55-5.72-4.5-1.62-11.86-2.25-3.72-2.35-6.3.72-9.66-1.44-.73-2.14-1.69-2.09-2.88l2.3-11.17c-2.42-.63-2.75-2.31-2.36-4.64-3.67-2.87-4.19-7.1-1.56-12.71-1.5-2.56-2.46-5.28-2.88-8.16-3.78-.94-2.36-3.59-.03-5.67-5.76-1.37-2.74-5.96-.13-9.23-2.64-3.75-4.13-7.62-4.46-11.6-3.07-.77-5.26-2.9-6.57-6.39-4.45.18-6.03-1.11-4.76-3.89-4.02-4.99-7.61-10.7-8.14-17.24l2-1.28c.97.37,1.98.59,3,1,1.4-2.44,3.8-1.87,4,1l2.21-1.24c3.36,5.76,19.59-.98,19.72-3.66.08-1.7-8.97-15.8-10.62-18.31-1.45-4.46-5.09-7.16-10.92-8.08-1.29-.82-16.41-16.65-16.86-17.79-2.5-6.38,8.66-6.58,10.45-1.92Z"/>
      <path class="cls-18" d="M138,366.1c-.29,5.22,3.42,11.91,6.6,15.95,1.66,2.11,3.8-.57.4,5.04,6.63-2.71,6.05,2.6,8.24,4.78.97.97,2.98.53,3.87,1.91.81,1.25.07,3.21.57,4.32.82,1.84,4.32,7.18,4.33,8.53.01,1.97-4.42,4.12-3,7.47l3.98-2c.9,3.98-2.23,5.19-3.99,7.99l3.99-1.99c-2.79,5.02,1.74,8.58,2.02,11.57.25,2.7-2.29,3.85-1.62,7.45,1.38,7.4,4.99.26,6.61,1.99.22.24.49,2.22-.76,2.96-.97.58-2.43-.33-3.23,2.54l3.98.97c-3.09,3.65-1.4,9-3.97,13.04,6.76.62.39,4.66.17,7.14-.14,1.67,1.74,3.08,1.76,4.84.02,2.22-3.41,6.97-2.96,9.99l4-1.49c-.4,2.39,1.9,4.61,2.03,6.59.22,3.48-3.42,3.84-4.01,6.95-.98,5.12,2.59,6.92,2.75,10.14.13,2.52-2.92,4.12-2.65,5.68.23,1.3,4.5,4.31,4.9,7.23.42,3.09-2.09,5.23-1.81,6.73.22,1.21,2.1,2.44,2.4,3.63.13.52-2.04,7.88-1.44,10.36.19.81,6.82,8.29.32,8.77-2.33.17-12.07-8.14-17.99-8.16-8.36-.02-2.49,10.64-1.6,14.69,3.05,13.83,3.79,26.26,6.19,39.83.41,2.32,2.85,7.29,2.84,9.06,0,2.03-4.3,9.15-3.92,9.5,2.03,1.88,2.08-4.04,3.99-1.98.81.87-1.8,3.02-1.97,4.53-.26,2.24.97,19.1,1.56,20.5.74,1.76,5.27,3.87,6.97,5.91,3.92,4.71,3.76,8.98,1.36,14.45-4.4,10.02-14.36,15.8-12.94,28.13.35,3.05,2.52,5.25,2.02,8.47-9.69-5.18-7.85-20.1-7.01-29.52.16-1.77.34-3.44,2.02-4.48,5.99-.13,8.99-.46,8.59-7.53-2.56,2.28-4.76,3.12-6.59,2.53l.99-6.99c-7.47,2.52-13.01,10.49-16.17,17.32-5.58,12.07-5.4,18.9,4.17,28.67-1.87-.31-2.57-.64-4-1-1.45-.46-2.11-1.13-2-2-6.38-7.52-9.96-10.29-5.87-20.37,2.8-6.89,10.78-15.67,15.43-22.57,1.3-1.93,4.66-3.88,5.23-5.76,1.71-5.68-3.03-11.83-2.83-17.77.14-4.13,3.16-7.16,3.7-10.88.84-5.84-3.19-17.04-3.68-23.19-1.3-16.36-4.66-31.42-6.02-46.91-1.11-12.67,5.03-11.78,9.04-22.02-.77-1.92-2.93-.38-2.99-.52-.33-.72.31-3.04-.06-4.44-.8-3.03-2.59-5.41-2.84-9.17-.14-2.12,1.63-8.43,1.59-8.89-.11-1.24-2.71-1.87-2.54-3.81s3.21-5.15,2.84-7.69l-4.01,4.99c-5.26-2.29,3.15-8.89,4-11.52s-2.52-1.02-2.96-1.51c-1.21-1.35,1.96-6.47,1.7-8.3-.33-2.39-3.77-3.99-3.79-4.27-.26-3.31,4.69-5.71,4.05-9.4l-3.98,4c-.15-3.45,2.74-6.96,2.05-10.47-.2-1.03-2.04-.2-2.8-.72-2.03-1.37.3-4.9.51-6.55.18-1.42-.66-2.77-.32-4.29s2.86-4.13,2.55-5.44-2.99-1.12-3.01-2.05c-.04-2.13,3.99-3.4,3-6.49-.3-.35-4.11,3.05-3.02-1.53.62-2.59,2.57-2.13,2.86-2.6.21-.34-.49-6.23-.25-8.01s1.69-3.01,1.42-4.86l-2.98,2c.85-2.89.81-6.34-.08-9.26-.27-.88-1.92-.75-1.98-1.37-.15-1.46,1.39-3.3.98-4.76-.34-1.19-5.88-2.72-1.93-8.6-.53-.4-2.76,1.15-2.98,1-.37-.26-2.28-7.09-2.98-8.59-.99-2.15-2.79-2.38-2.86-2.56-.11-.32.94-5.22.28-6.86,2.34-2.8,4.26.53,5.53,1.01Z"/>
      <path class="cls-6" d="M144,256.1c-2.46,3.44-1.56,5.49-2,9l.3,5.55c5.17,7.47-.89,19.27-8.78,21.02-2.91,6.06-6.28,8.67-13.11,9.43l-4.27,7.76c2.05,6.07,3.28,12.63,3.69,19.68,6.95,4.96,12.51,10.88,16.68,17.75l8.66,7.65c5.02,3.57,7.49,14.83-.17,14.16-1.09-.39-2.41-.36-4-1,1.42-3.41.98-4.69-1.01-7.5-7.76-10.99-29.89-21.56-33.75-35.24-.5-1.78.03-3.83-.49-5.51-1.91-6.28-7.05-9.34-8.3-14.75-.66-2.84.43-4.61-.46-7,1.03-.26,6.64-1.9,5.99-3.49-1.78-4.37-11.25-4.51-15.04-3.06l-5.95,4.55c-1.71.42-4.17,2.3-6.76,2.75-5.91,1.03-3.31-.21-5.03-3.43-1.88-3.52-4.88-6.46-6.21-10.32,7.64-2.02,6.97.56,12.49,1.5,4.16.7,2.17-1.69,7.23,1.53,2.28,1.45,9.65.49,7.28-4.02-2.22.97-4.87-.89-6.01-1h7c-.08-1.49-2.85-1.81-3-3,1.05-.99-4.04-1.37-6,0-5.59-.44-10.22-.98-16-1,4.26-4.11-3.57-9.4-3-15,8.14,3.55,14.38,6.79,22,11,6.48,3.58,11.06,8.7,19.29,6.79,2.24-.52,4.08-3.01,5.65-3.37,1.18-.27,2.71,2.4,7.53.55,3.4-1.31,4.61-3.98,6.85-5.63,2.69-1.99,6.65-3.07,9.7-7.09,2.54-3.35,4.05-11.45,8.98-9.24Z"/>
      <path class="cls-31" d="M138,687.1c.6.71,1.44,1.25,2,2-3.4-.85-6.79-1.56-10-3-.6-.27-1.92-1.41-3-2l.6-.95c3.73.25,6.19,4.31,10.4,3.95Z"/>
      <path class="cls-9" d="M139,601.1c.28-6.97-.21-14.03,0-21,.02.18.9,1.59,1.07,3.39.48,4.98.33,12.86-1.07,17.61Z"/>
      <path class="cls-9" d="M138,577.1c-.45-3.39.32-7.5,0-11,.44.04.84-.07.99.5-1.1,3.53,2.97,8.79-.99,10.5Z"/>
      <path class="cls-18" d="M83,279.1c1.26-3.48,4.38-1.06,7.01-.98-.13.43-1.03.9-1.01.98-1.98-.11-4.02.15-6,0Z"/>
      <path class="cls-27" d="M318,100.1c-.54,6.31-10.94,9.36-8.85,16.3,1.35,4.45,16.68,7.27,20.34,17.71,3.4,9.71.44,13.09-1.02,21.45-.24,1.4,1.03,3.42.34,5.81-.5,1.74-4.62,5.5-5.72,8.32-1.69,4.33-.56,6.92-4.11,10.89-6.23,6.96-11.44,1.23-18.76-.3-4.69-.98-10.05-1.95-14.98-2.93-22.89-4.57-48.19,3.31-61.07,23.43-11.02,17.22-11.76,34.3-.6,51.24,2.06,3.12,14.09,14.27,17.51,16.49,39.35,25.55,88-10.87,74.87-57.86-.61-2.19-1.87-6.72-2.48-8.49-1.09-3.16-5.04-3.67-2.74-8.81.63-1.4.22-1.53,2.26-1.25-.37,5.14,4.19,6.06,6.55,10.96,7.21,14.95,12.13,26.52,6.63,42.72-3.62,10.66-9.79,23.26-17.48,31.03-1.76,1.78-9.63,8.22-11.65,8.84-13.18,4.03-42.68,4.84-56.47,3.38-2.11-.22-4.3-1.89-6.1-1.84s-3.29,1.9-4.97,1.87c-3.3-.06-7.5-5.96-10.91-4.89-1.78.56-.69,3.81-3.59,2.93l.99-3.98c-7.99-1.47-3.5,11.13-12.29,6.08-1.4,2.5-6.92,3.21-7.79,4.56-2.21,3.41-1.69,12.49-4.03,16.83-.02,1.97,2.06,8.15,3.07,9.82.62,1.02,2.83,1.37,3.05,2.21,1.11,4.26-10.99.6-12.98-.03-7.85-2.51-19.07-9.57-20.79-18.21-.52-2.63-1.07-11.74.07-13.99,1.49-2.94,5.43-3.04,7.39-4.06,7.03-3.66,23.32-9.34,19.41-19.74-.27-.72-4.59-7.56-5.05-8.02-.84-.86-6.77-4.25-8.05-2.45-1.41,2.67-7.48.82-8-2-.69,2.89-4.11,1.86-4-1l.99-2.48c5.52-.82,9.13-3.27,10.83-7.37,4.35-14.21,12.84-29.02,24.23-38.68,2.6-6.91,4.74-9.62,11.59-12.02,11.53-11.15,21.93-19.46,37.23-24.62l15.84-11.89c10.12-5.08,19.28-11.68,28.24-18.17,1.02-10.16,4.49-19.7,12.06-26.78,3.73-2.41,8.4-7.38,11-11Z"/>
      <path class="cls-28" d="M352,664.1c-1.2-1.53-.71-2.9-.07-4.5,1.84-4.59,4.86-9.12,6.82-14.25,13.93-36.45,26.27-70.9,42.76-106.24,8.93-19.15,17.46-32.72,28.91-50.09.85-1.29,6.67-13.57,7.57-12.91.08.06-.16,1.91.51,2.04,3.59.7,4.34-2.78,1.98-5.05-1.74-1.67-4.44.26-3.46-3.99,4.16,3.16,8.68-1.3,11.66-1.68,1.7-.22,3.85,1.15,5.68.76,1.67-.35.49-5.59,4.14-4.07,5.53,2.31-3.44,9.1-4.93,11.05-20.73,27.12-40.98,71.73-38.55,106.43,2.25,32.24,38.24,48.56,65.96,55.04,4.35,1.02,38,5.78,38.01,8.97-2.02,2.54-7.32,4.21-10.47,4.31-23.35.74-44.42-9.06-67.14-11.69-8.56-.99-16.42-2.06-24.7,1.05-.57.21-6.44,8.52-7.21,9.79-6.54,10.8-11.96,28.5-6.58,40.66.88,1.99,2.28,1.92,2.82,2.68.48.67.21,1.61.29,1.69-3.9,1.71-13.01-1.65-16.95-4.25-5.96-3.93-10.82-12.56-11.85-19.55-.33-2.25-.59-4.32,1.8-5.19-7.87-.61-15.87-.94-24-1-.66,2.68-1.77,2.43-3,0Z"/>
      <path class="cls-33" d="M184,690.1c-5.1-.17,1.77-1.45.98-3.47-10.81-8.49-5.01-24.03-.75-34.79.73-1.85,2.76-3.34,3.83-6.18,4.25-11.31-2.31-15.63-2.68-26.23-.3-8.72,2.4-20.26,1.57-28.69-.32-3.21-5.92-22.68-4.95-23.63,3.78.26,7.62,2.71,11.02,4.47,9.83,5.09,21.43,15.69,33.03,12.07,4.57-1.43,3.15-6.09,6.95-6.55-.02.33.01.67,0,1,.75,6.31.92,12.7,0,19-.32,11.35.39,38.03-5.19,47.31-1.22,2.02-9.87,5.95-12.72,8.28-8.32,6.79-11.48,15.56-13.07,25.93-.77,5.01,1.95,5.68-4.01,8.49-4.71.85-9.01,2.13-14,3Z"/>
      <path class="cls-16" d="M338,78.1c6.51-5.33,11.17-12.45,17.47-18.03,6.83-6.04,17.1-14.54,15.54,2.53-.92,10.05-3.73,19.99-3.7,30.87.02,7.12,2.15,15.38,2.66,22.18.21,2.76-1.68,5.99-.93,9.91,1.39,7.31,10.44,18.26,12.28,25.71.84,3.38.81,6.39.66,9.82l-5.49-5.01c-1.15-5.85-4.08-2.83-7.08-4.91-1.37-.95-2.57-4.49-4.02-5.98-5.7-5.9-25.29-20-32.72-23.28-4.25-1.88-19.23-4.55-19.72-9.35-.41-4.07,6.78-9.72,9.08-12.96.69-.97.71-2.18.95-2.51,4.74-6.59,10.57-12.75,15-19Z"/>
      <path class="cls-17" d="M235,198.1l1.33.21c22.52-23.81,58.84-18.25,72.12,12.16,14.74,33.74-12.53,64.49-47.93,60.9-19.34-1.96-26.8-13.79-34.95-29.66-.28-.54-.88-.27-1.57.4-4.44-17.22-.41-31.11,11-44Z"/>
      <path class="cls-18" d="M139,317.1c-2.82-.8-7.26-1.58-9.99-.51l17.44,18.56,9.3,3.2c.93,5.98,13.38,20.86,13.24,25.33-.07,2.11-10.21,7.01-12.55,7.35-7.1,1.06-7.03-1.36-11.44-2.93,9.12-7.86-5.59-15.59-10-20.5-2.13-2.37-3.95-7.17-5.97-9.03-2.56-2.34-9.75-6.07-11.27-9.73-1.14-2.74-.54-5.24-.97-8.02-.6-3.84-.47-4.85-.79-8.19-.14-1.46-1.77-2.37-1.78-3.85,0-.92,4.34-8.91,4.77-9.2,1.42-.96,6.35-.96,8.94-3.06,2.38-1.92,2.24-4.96,4.55-6.54,1.43-.97,2.78-.11,3.55-.49.59-.28,6.66-10.4,6.73-11.04.17-1.6-1.54-4.49-1.78-6.86-.34-3.41.77-4.57,1.01-6.5,1.83,13.04,17.32,19.43,17.08,33.5-.21,11.98-7.69,20.19-20.08,18.5Z"/>
      <path class="cls-13" d="M313,209.1c7.42,20.78,1.91,42.06-16,56-1.08.79-1.86,1.31-3,2-16.1,8.94-34.97,9.29-51,0-1.96-1.21-2.4-1.7-4-3-6.6-5.42-10.91-12.03-14-20-.04-.12-.49-.02-1-2v-18.49s1.99-5.51,1.99-5.51c-4.89,19.28,6.03,40.29,23.33,49.16,12.25,6.28,34.96,1.95,45.59-6.75,39.77-32.55-4.06-100.16-53.85-65.85-.65.45-6.78,8.06-6.07,3.43,22.41-25.31,64.72-20.84,78,11Z"/>
      <path class="cls-6" d="M178,256.1c2,.76,3.34,1.69,5,3,2.72,2.93-.39,5.24-3.26,6.98l-10.67,3.35c-9.64.95-13.87,3.11-10.65,13.24l-2.43.43c-3.37-3.47-9.11-8.91-11-13-1.61-6.3,2.96-8.26,8.63-8.3,5.11.74,10.04.7,14.78-.14-.68-4.14-.15-6.66,1.59-7.56,2.34.43,5.85,1.19,8,2Z"/>
      <path class="cls-26" d="M344.99,307.12c.22,1.88-2.02.77-3.04.54-15.51-3.49-29.25-8.61-45.58-10.42-16.63-1.85-32.48-.23-48.89-1.13-1.13-.06-2.75.66-2.47-.99,2.22.2,2.18-.13,1.03-1.96,33.4-3.92,67.8,1.63,98.96,13.96Z"/>
      <path class="cls-5" d="M164,253.1c.56-1.92,1.44-1.93,2,0,.39.04,2.72.76,4,1-.64,3.14,2.71,7.72-1.01,9.5-6.98,3.34-22.09-4.89-23.99,6.5-1.9-4.11-3.11-10.23,0-14,3.67-4.3,14.46-5.31,19-3Z"/>
      <path class="cls-1" d="M336,348.09l-18.69-12.8c-14.24-8.18-29.03-15.4-44.79-20.21l-25.51-7.47c1.7-2.27,3.94-1.55,6.23-1.27,5.23.66,13.69,3.39,18.97,5.04,22.76,7.1,46.69,20.24,63.79,36.7Z"/>
      <path class="cls-18" d="M183,259.1c3.71,2.93,4.08,3.03.02,6.52-4.5,3.87-12.43,3.69-15.06,6.94-2.18,2.7-4.35,15.02-4.97,15.54-2.18,1.85-5.84-3.82-6.99-5,1.85-2.05-1.07-4.41-.8-7.26,1.25-13.19,25.75-3.57,27.8-16.74Z"/>
      <path class="cls-21" d="M304.99,373.1c-3.98-3.26-6.23-8.1-9.48-12.01-14.27-17.18-32.46-30.1-50.51-42.98,12.44,4.57,24.26,14.52,34.01,23.48,8.29,7.61,18.43,18.15,24.38,27.62.78,1.24,1.93,2.21,1.59,3.9Z"/>
      <path class="cls-17" d="M297,265.1c11.38-10.51,18.36-22.49,18.9-38.39l-2.9-17.61c9.08,21.76,2.3,42.56-16,56Z"/>
      <path class="cls-17" d="M294,267.1c-16.89,10.28-34.14,10.4-51,0,16.61,8.36,34.31,7.74,51,0Z"/>
      <path class="cls-18" d="M151,252.1c-1.44-3.22,10.67-3.78,12.06-3.24,3.08,1.18,4.36,3.21.94,4.24-4.54-.32-16-.63-19,3h-1c1.84-2.58,4.01-3.24,7-4Z"/>
      <path class="cls-17" d="M239,264.1c-8.69-7.03-10.44-8.99-14-20l7.17,12.33,6.83,7.67Z"/>
      <path class="cls-23" d="M233,597.1c.18-6.31-.23-12.69,0-19,1.68,5.45,1.67,13.63,0,19Z"/>
      <path class="cls-6" d="M307,111.1c.78,4.56-4.53,6.67-5.56,9.94-1.39,4.42-2.5,7.74-3.99,12.01-.67,1.92-.03,4.8-.91,6.09-.63.92-2.71.84-3.45,1.55-10.02,9.65-10.67,8.69-22.02,14.98-4.5,2.49-12.07,8.55-16.16,11.83-7.5,6.02-14.83,6.24-20.86,10.14-5.67,3.66-13.79,12.83-20.54,17.46-1.59,1.09-3.66.9-5.07,1.93-2.09,1.53-3.13,6.75-5.01,8.99-1.1,1.32-3.22,2.01-4.48,3.52-6.04,7.26-10.23,14.71-14.77,22.23-2.28,3.79-3.88,12.99-6.71,16.29-2.22,2.58-8.36,3.74-11.47,5.03-.65-.07-1.34.05-2,0-.09-.56.17-1.88,0-2-1.15-.87-10.68.41-13.01,1-3.74-6.03,6.32-11.14,7.58-15.01.64-1.95,4.27-16.98,4.43-18.57.21-2.16-1.01-3.84-.62-6.44.71-4.66,4.87-7.48,5.88-10.25.6-1.65-.71-3.61.15-4.74.65-.86,2.83-.93,4.02-2.04s7.18-9.91,8.06-9.92c.37,0,2.22,5.72,5.02.99.89-1.5.05-3.59.71-4.79.78-1.41,10.22-7.1,12.35-10.15,1.36-1.94,1.13-3.86,1.77-4.74,2.53-3.46,7.87-4.67,6.67-10.33,5.56,4.89,4.84-.42,6.56-.83.86-.2,2.53,1.14,3.47.43,1.27-.95.68-5.43,3.47-6.59,3.26-1.35-1.28,5.42,1.97,3.98,1.4-.62,2.88-4,4.58-5.43,2.41-2.03,6.27-2.37,6.73-2.78.56-.5.24-2.63,1.16-3.38.86-.7,2.63.69,4.02.12,1.31-.53,5.76-6.02,7.53-7.56.82-.72,2.4-.25,3.05-.88,1.38-1.35,1.41-3.87,2.4-4.6.55-.41,2.36.74,3.61-.35,1.71-1.48,4.73-6.91,8.04-9,2.54-1.61,5.81-1.49,8.31-2.73,6.54-3.24,5.77-6.18,15.58-5.4,8.96.72,10.36,5.89,19.51-.01Z"/>
      <path class="cls-22" d="M146,210.1c-.76,10.07-6.61,31.74-13.51,38.99-1.24,1.3-16.7,12.97-17.74,13.35-2.88,1.04-4.78-.6-7.79.04-2.67.57-4.43,3.16-5.57,3.38-1.75.34-14.25-3.53-14.39-4.28,1.34-3.36,3.95-6.56,7-8.48,7.19,3.02,15.91,1.92,23-1,5.63-4.03,11.5-8.36,16-14-.86-.28-.84-.61,0-1,14.89-18.06,15.49-48.57-.88-66.35l-.12-1.65c1.55-.16,2.95-1.34,5.5-1.08,6.07.6,2.03,3.73,2.64,6.39.37,1.6,3.14,2.56,3.66,4.39,2.11,7.37,2.79,23.4,2.2,31.3Z"/>
      <path class="cls-6" d="M132,169.1c14.91,16.98,17.38,42.99,6.16,62.66-1.15,2.02-2.4,5.22-5.16,5.34l-.61-2.89c10.57-18.69,14.11-44.47-2.05-61.06l-.34-3.06v-1c.23.11,1.51.05,2,0Z"/>
      <path class="cls-22" d="M170.99,143.1c.63,2.06-1.02,6.43-3.48,5.99-3.79-.67,3.2-6.31,3.48-5.99Z"/>
      <path class="cls-15" d="M130,170.1c19.4,17.09,15.27,47.14,3,67-.15.24.15.76,0,1-4.78,6.4-10.45,10.73-17,13-43.07,17.06-53.54-58.19-20.73-81.23,10.61-7.45,24.62-8.68,34.73.23Z"/>
      <path class="cls-7" d="M117,252.1l-1-1c6.37-2.52,11.82-8.73,17-13-3.55,5.6-9.55,11.34-16,14Z"/>
      <path class="cls-2" d="M155,651.1c1.29-1.28,6.31-6.18,7.99-5,1.64,1.53-.56,10.46-1.1,10.89-.64.51-3.33-.32-4.91.58-2.61,1.49-.29,6.99-4.98,5.52,1.51-2.31.7-4.71,1-6.99.43-3.31-.55-2.48,2-5Z"/>
      <path class="cls-23" d="M407.99,641.11c2.68,3.04-5.08,7.04-6.46,9.03-1.77,2.53-6.73,14.09-7.94,15.06-1.92,1.54-6.02.78-7.17-1.08-1-1.62,6.27-15.32,8.01-17.08,1.22-1.23,13.07-6.48,13.56-5.93Z"/>
      <path class="cls-23" d="M390.13,681.24c3.28-5.27,12.6,7.76,7.35,8.87-1.05.22-9.9-4.77-7.35-8.87Z"/>
      <path class="cls-36" d="M259.74,195.35c42.22-6.75,44.9,60.56,5.73,62.75-37.97,2.12-38.37-57.54-5.73-62.75Z"/>
      <path class="cls-8" d="M99,234.1c-.98-.79-1.22-1.1-2-2-6.92-10.97-8.9-26.21-3.11-38.19,3.93-8.14,6.11-7.71,6.51.71,3.91,11.54,21.07-.36,15.43-9.11-12.15-8.09-.64-9.71,7.64-4.95,23.67,13.62,6.04,70.4-24.47,53.54Z"/>
      <path class="cls-34" d="M99,234.1l7.47,2.02c31.28,3.78,39.12-59.31,4.53-57.01l5.99,4.49c8.56,12.58-14.29,26.03-18.52,11.53-.57-1.97.28-5.58-1.46-6.02-5.08,9.77-7.43,20.17-4.56,31.04l4.54,11.96c-13.15-15.25-7.93-48.97,13.18-54.31,19.2-4.86,26.53,17.3,24.71,32.71-1.9,16.07-19.61,36.75-35.89,23.61Z"/>
      <path class="cls-14" d="M255.75,199.32c15.33-2.53,10.14,20.26-3.21,17.77-8.58-1.6-6.34-16.2,3.21-17.77Z"/>
      <path class="cls-20" d="M101.26,197.85c-5.9-6.26,4.56-22.53,13.26-14.77s-5.74,22.75-13.26,14.77Z"/>
    </g>
  </g>
</svg>